<svg xmlns="http://www.w3.org/2000/svg" xmlns:svg="http://www.w3.org/2000/svg" id="svg21" width="32" height="32" version="1.1"><metadata id="metadata25"/><defs id="defs3"><style id="current-color-scheme" type="text/css">.ColorScheme-Text{color:#dedede}</style></defs><rect id="rect5" width="16" height="16" x="-20.43" y="-19.39" class="ColorScheme-Text" opacity="0" ry="0"/><g id="16-16-kdf"><path id="path17" d="m -38,16 v 16 h 16 V 16 Z" style="fill:none"/><circle style="opacity:.8;fill:#04ff04;fill-opacity:1;stroke-width:.0499999;stroke-linecap:round;stroke-linejoin:round" id="circle1664-3" cx="-34.5" cy="25.5" r=".5"/><path id="rect1197" style="opacity:1;fill:#fff;fill-opacity:1;fill-rule:evenodd;stroke-width:2;stroke-linecap:round;stroke-linejoin:round;paint-order:stroke fill markers" d="m -37,22 v 6 h 14 v -6 z m 1,1 h 12 v 4 h -12 z"/></g><g id="kdf"><rect id="rect4151-6" width="32" height="32" x="0" y="0" style="opacity:.2;fill:none;fill-opacity:1;stroke:none"/><g id="g3278" transform="translate(-30)"><path id="path2072" style="fill:#fff;fill-opacity:1;fill-rule:evenodd;stroke-width:2;stroke-linecap:round;stroke-linejoin:round;paint-order:stroke fill markers" d="m 35,21 v 8 h 22 v -8 z m 1,1 h 20 v 6 H 36 Z"/><path id="path2074" style="fill:#fff;fill-opacity:1;fill-rule:evenodd;stroke-width:2;stroke-linecap:round;stroke-linejoin:round;paint-order:stroke fill markers" d="m 38,14 -3,7 h 1 l 2.707031,-6 H 43 45 53.292969 L 56,21 h 1 l -3,-7 h -9 -2 z"/><circle style="fill:#04ff04;fill-opacity:.8;fill-rule:evenodd;stroke-width:6;stroke-linecap:round;stroke-linejoin:round;paint-order:stroke fill markers" id="circle2076" cx="39.5" cy="25.5" r="1.5"/></g><path style="fill:#fff;fill-opacity:1;stroke:none;stroke-width:1px;stroke-linecap:butt;stroke-linejoin:miter;stroke-opacity:1" id="path4320" d="M 7.707031,15 6,21 h 20 l -1.707031,-6 z"/></g><g id="22-22-kdf"><rect style="opacity:.00100002;fill:#fff;fill-opacity:1;stroke:none;stroke-width:.1;stroke-miterlimit:4;stroke-dasharray:none;stroke-opacity:1" id="rect846-6" width="22" height="22" x="-22" y="10" ry="0"/><path id="rect1039" style="fill:#fff;fill-opacity:1;fill-rule:evenodd;stroke-width:2;stroke-linecap:round;stroke-linejoin:round;paint-order:stroke fill markers" d="m -19,22 v 7 h 16 v -7 z m 1,1 h 14 v 5 h -14 z"/><path id="path1143" style="fill:#fff;fill-opacity:1;fill-rule:evenodd;stroke-width:2;stroke-linecap:round;stroke-linejoin:round;paint-order:stroke fill markers" d="m -17,17 -2,5 h 1.353516 l 1.353515,-4 H -12 h 2 4.2929688 l 1.3535156,4 H -3 l -2,-5 h -5 -2 z"/><circle style="fill:#04ff04;fill-opacity:.8;fill-rule:evenodd;stroke-width:4;stroke-linecap:round;stroke-linejoin:round;paint-order:stroke fill markers" id="circle3365" cx="-16" cy="26" r="1"/><path style="fill:#fff;fill-opacity:1;stroke:none;stroke-width:1px;stroke-linecap:butt;stroke-linejoin:miter;stroke-opacity:1" id="path4972" d="M -17.646484,22 H -4.3535156 L -5.7070312,18 H -16.292969 Z"/></g></svg>