<svg xmlns="http://www.w3.org/2000/svg" xmlns:svg="http://www.w3.org/2000/svg" xmlns:xlink="http://www.w3.org/1999/xlink" id="svg4153" width="22" height="22" version="1.1" viewBox="0 0 22 22"><metadata id="metadata35"/><defs id="defs4157"><style id="current-color-scheme" type="text/css"/></defs><use id="use880" width="100%" height="100%" x="0" y="0" transform="translate(-27.32783)" xlink:href="#g878"/><use id="use882" width="100%" height="100%" x="0" y="0" transform="translate(-24.481181,0.18977659)" xlink:href="#use880"/><use id="use886" width="100%" height="100%" x="0" y="0" transform="translate(-27.897159,0.75910638)" xlink:href="#use884"/><g id="software-updates-updates"><rect id="rect817-1-0" width="22" height="22" x="0" y="0" style="clip-rule:evenodd;fill:#fff;fill-opacity:0;fill-rule:evenodd;stroke-width:.546348;stroke-linejoin:round;stroke-miterlimit:1.41421"/><g id="g941" transform="translate(48.19292,-0.17401057)"><path style="fill:none;stroke:#0078d7;stroke-width:1.00026;stroke-linecap:round;stroke-miterlimit:4;stroke-dasharray:none;stroke-opacity:1" id="path918" d="m -31.631676,16.615908 a 7.4999809,7.4999809 0 0 1 -8.59447,1.435987 7.4999809,7.4999809 0 0 1 -4.151966,-7.66082 7.4999809,7.4999809 0 0 1 5.894945,-6.4169 7.4999809,7.4999809 0 0 1 7.984741,3.4886792"/><rect style="opacity:1;fill:#0078d7;fill-opacity:1;stroke-width:.912871;stroke-linecap:round;stroke-miterlimit:4;stroke-dasharray:none" id="rect920" width="5" height="1" x="-33.684" y="11.104" ry=".5" transform="rotate(7.8703413)"/><rect style="opacity:1;fill:#0078d7;fill-opacity:1;stroke-width:.912871;stroke-linecap:round;stroke-miterlimit:4;stroke-dasharray:none" id="rect925" width="5" height="1" x="7.104" y="28.684" ry=".5" transform="rotate(97.870342)"/></g></g><g id="software-updates-release" transform="translate(-4.4433591e-8,25)"><rect id="rect955" width="22" height="22" x="0" y="0" style="clip-rule:evenodd;fill:#fff;fill-opacity:0;fill-rule:evenodd;stroke-width:.546348;stroke-linejoin:round;stroke-miterlimit:1.41421"/><g id="g963" transform="translate(48.19292,-0.17401057)"><path style="fill:none;stroke:#0078d7;stroke-width:1.00026;stroke-linecap:round;stroke-miterlimit:4;stroke-dasharray:none;stroke-opacity:1" id="path957" d="m -31.631676,16.615908 a 7.4999809,7.4999809 0 0 1 -8.59447,1.435987 7.4999809,7.4999809 0 0 1 -4.151966,-7.66082 7.4999809,7.4999809 0 0 1 5.894945,-6.4169 7.4999809,7.4999809 0 0 1 7.984741,3.4886792"/><rect style="opacity:1;fill:#0078d7;fill-opacity:1;stroke-width:.912871;stroke-linecap:round;stroke-miterlimit:4;stroke-dasharray:none" id="rect959" width="5" height="1" x="-33.684" y="11.104" ry=".5" transform="rotate(7.8703413)"/><rect style="opacity:1;fill:#0078d7;fill-opacity:1;stroke-width:.912871;stroke-linecap:round;stroke-miterlimit:4;stroke-dasharray:none" id="rect961" width="5" height="1" x="7.104" y="28.684" ry=".5" transform="rotate(97.870342)"/></g></g><g id="software-updates-additional" transform="translate(-4.4433591e-8,51)"><rect id="rect967" width="22" height="22" x="0" y="0" style="clip-rule:evenodd;fill:#fff;fill-opacity:0;fill-rule:evenodd;stroke-width:.546348;stroke-linejoin:round;stroke-miterlimit:1.41421"/><g id="g975" transform="translate(48.19292,-0.17401057)"><path style="fill:none;stroke:#0078d7;stroke-width:1.00026;stroke-linecap:round;stroke-miterlimit:4;stroke-dasharray:none;stroke-opacity:1" id="path969" d="m -31.631676,16.615908 a 7.4999809,7.4999809 0 0 1 -8.59447,1.435987 7.4999809,7.4999809 0 0 1 -4.151966,-7.66082 7.4999809,7.4999809 0 0 1 5.894945,-6.4169 7.4999809,7.4999809 0 0 1 7.984741,3.4886792"/><rect style="opacity:1;fill:#0078d7;fill-opacity:1;stroke-width:.912871;stroke-linecap:round;stroke-miterlimit:4;stroke-dasharray:none" id="rect971" width="5" height="1" x="-33.684" y="11.104" ry=".5" transform="rotate(7.8703413)"/><rect style="opacity:1;fill:#0078d7;fill-opacity:1;stroke-width:.912871;stroke-linecap:round;stroke-miterlimit:4;stroke-dasharray:none" id="rect973" width="5" height="1" x="7.104" y="28.684" ry=".5" transform="rotate(97.870342)"/></g></g><g id="software-updates-inactive" transform="translate(39)"><rect id="rect979" width="22" height="22" x="0" y="0" style="clip-rule:evenodd;fill:#fff;fill-opacity:0;fill-rule:evenodd;stroke-width:.546348;stroke-linejoin:round;stroke-miterlimit:1.41421"/><g id="g987" transform="translate(48.19292,-0.17401057)"><path style="fill:none;stroke:#323232;stroke-width:1.00026;stroke-linecap:round;stroke-miterlimit:4;stroke-dasharray:none;stroke-opacity:1" id="path981" d="m -31.631676,16.615908 a 7.4999809,7.4999809 0 0 1 -8.59447,1.435987 7.4999809,7.4999809 0 0 1 -4.151966,-7.66082 7.4999809,7.4999809 0 0 1 5.894945,-6.4169 7.4999809,7.4999809 0 0 1 7.984741,3.4886792"/><rect style="opacity:1;fill:#323232;fill-opacity:1;stroke-width:.912871;stroke-linecap:round;stroke-miterlimit:4;stroke-dasharray:none" id="rect983" width="5" height="1" x="-33.684" y="11.104" ry=".5" transform="rotate(7.8703413)"/><rect style="opacity:1;fill:#323232;fill-opacity:1;stroke-width:.912871;stroke-linecap:round;stroke-miterlimit:4;stroke-dasharray:none" id="rect985" width="5" height="1" x="7.104" y="28.684" ry=".5" transform="rotate(97.870342)"/></g></g><g id="software-updates-security" transform="translate(39,25)"><rect id="rect991" width="22" height="22" x="0" y="0" style="clip-rule:evenodd;fill:#fff;fill-opacity:0;fill-rule:evenodd;stroke-width:.546348;stroke-linejoin:round;stroke-miterlimit:1.41421"/><g id="g999" transform="translate(48.19292,-0.17401057)"><path style="fill:none;stroke:#72d78f;stroke-width:1.00026;stroke-linecap:round;stroke-miterlimit:4;stroke-dasharray:none;stroke-opacity:1" id="path993" d="m -31.631676,16.615908 a 7.4999809,7.4999809 0 0 1 -8.59447,1.435987 7.4999809,7.4999809 0 0 1 -4.151966,-7.66082 7.4999809,7.4999809 0 0 1 5.894945,-6.4169 7.4999809,7.4999809 0 0 1 7.984741,3.4886792"/><rect style="opacity:1;fill:#72d78f;fill-opacity:1;stroke-width:.912871;stroke-linecap:round;stroke-miterlimit:4;stroke-dasharray:none" id="rect995" width="5" height="1" x="-33.684" y="11.104" ry=".5" transform="rotate(7.8703413)"/><rect style="opacity:1;fill:#72d78f;fill-opacity:1;stroke-width:.912871;stroke-linecap:round;stroke-miterlimit:4;stroke-dasharray:none" id="rect997" width="5" height="1" x="7.104" y="28.684" ry=".5" transform="rotate(97.870342)"/></g></g><g id="software-updates-important" transform="translate(39,51)"><rect id="rect1003" width="22" height="22" x="0" y="0" style="clip-rule:evenodd;fill:#fff;fill-opacity:0;fill-rule:evenodd;stroke-width:.546348;stroke-linejoin:round;stroke-miterlimit:1.41421"/><g id="g1011" transform="translate(48.19292,-0.17401057)"><path style="fill:none;stroke:#f6e849;stroke-width:1.00026;stroke-linecap:round;stroke-miterlimit:4;stroke-dasharray:none;stroke-opacity:1" id="path1005" d="m -31.631676,16.615908 a 7.4999809,7.4999809 0 0 1 -8.59447,1.435987 7.4999809,7.4999809 0 0 1 -4.151966,-7.66082 7.4999809,7.4999809 0 0 1 5.894945,-6.4169 7.4999809,7.4999809 0 0 1 7.984741,3.4886792"/><rect style="opacity:1;fill:#f6e849;fill-opacity:1;stroke-width:.912871;stroke-linecap:round;stroke-miterlimit:4;stroke-dasharray:none" id="rect1007" width="5" height="1" x="-33.684" y="11.104" ry=".5" transform="rotate(7.8703413)"/><rect style="opacity:1;fill:#f6e849;fill-opacity:1;stroke-width:.912871;stroke-linecap:round;stroke-miterlimit:4;stroke-dasharray:none" id="rect1009" width="5" height="1" x="7.104" y="28.684" ry=".5" transform="rotate(97.870342)"/></g></g></svg>