<svg xmlns="http://www.w3.org/2000/svg" xmlns:svg="http://www.w3.org/2000/svg" xmlns:xlink="http://www.w3.org/1999/xlink" id="svg226" width="121" height="56" version="1.1" viewBox="0 0 121 56"><metadata id="metadata230"/><defs id="defs39"><style id="current-color-scheme" type="text/css">.ColorScheme-Background{color:#eff0f1;stop-color:#eff0f1}</style><radialGradient id="p" cx="55.393" cy="910.26" r="6" gradientTransform="matrix(0.83333,4.1862e-6,-4.1862e-6,0.83333,9.8431,-751.55)" gradientUnits="userSpaceOnUse" xlink:href="#b"/><radialGradient id="o" cx="55.75" cy="943.61" r="6" gradientTransform="matrix(-6.9016e-7,0.83333,-0.83333,-6.9016e-7,842.34,906.9)" gradientUnits="userSpaceOnUse" xlink:href="#a"/><radialGradient id="n" cx="9.143" cy="948.86" r="6" gradientTransform="matrix(-0.83333,8.1918e-6,-8.1916e-6,-0.83332,21.627,1744.1)" gradientUnits="userSpaceOnUse" xlink:href="#a"/><radialGradient id="m" cx="23.7" cy="912.47" r="6" gradientTransform="matrix(1.1295e-7,-0.83333,0.83333,1.1295e-7,-746.39,26.75)" gradientUnits="userSpaceOnUse" xlink:href="#a"/><radialGradient id="l" cx="23.7" cy="912.47" r="6" gradientTransform="matrix(1.1295e-7,-0.83333,0.83333,1.1295e-7,-688.39,26.75)" gradientUnits="userSpaceOnUse" xlink:href="#a"/><radialGradient id="k" cx="55.393" cy="910.26" r="6" gradientTransform="matrix(0.83333,-1.9977e-7,1.9977e-7,0.83333,67.839,-751.55)" gradientUnits="userSpaceOnUse" xlink:href="#b"/><radialGradient id="j" cx="9.143" cy="948.86" r="6" gradientTransform="matrix(-0.83333,1.7691e-7,-1.7691e-7,-0.83333,79.619,839.72)" gradientUnits="userSpaceOnUse" xlink:href="#a"/><radialGradient id="i" cx="55.75" cy="943.61" r="6" gradientTransform="matrix(-4.8123e-7,0.83333,-0.83333,-4.8123e-7,900.34,2.5421)" gradientUnits="userSpaceOnUse" xlink:href="#a"/><linearGradient id="b"><stop id="stop11" offset="0" stop-opacity=".6"/><stop id="stop13" offset="1" stop-opacity="0"/></linearGradient><linearGradient id="a"><stop id="stop16" offset="0"/><stop id="stop18" offset="1" stop-opacity="0"/></linearGradient><linearGradient id="h" x1="-19" x2="-8" y1="932.36" y2="932.36" gradientUnits="userSpaceOnUse" xlink:href="#a"/><linearGradient id="g" x1="51" x2="62" y1="932.36" y2="932.36" gradientUnits="userSpaceOnUse" xlink:href="#a"/><linearGradient id="f" x1="948.36" x2="959.36" y1="-35" y2="-35" gradientUnits="userSpaceOnUse" xlink:href="#a"/><linearGradient id="e" x1="-916.36" x2="-905.36" y1="-35" y2="-35" gradientUnits="userSpaceOnUse" xlink:href="#a"/><linearGradient id="ab" x1="19" x2="19" y1="48" y2="54" gradientTransform="translate(0,904.36)" gradientUnits="userSpaceOnUse" xlink:href="#a"/><linearGradient id="aa" x1="15" x2="9" y1="46" y2="46" gradientTransform="translate(0,904.36)" gradientUnits="userSpaceOnUse" xlink:href="#a"/><linearGradient id="d" x1="15" x2="9" y1="10" y2="10" gradientUnits="userSpaceOnUse" xlink:href="#a"/><linearGradient id="z" x1="16" x2="16" y1="8" y2="2" gradientUnits="userSpaceOnUse" xlink:href="#a"/><linearGradient id="y" x1="55" x2="61" y1="46" y2="46" gradientTransform="translate(0,904.36)" gradientUnits="userSpaceOnUse" xlink:href="#a"/><linearGradient id="x" x1="53" x2="53" y1="48" y2="54" gradientTransform="translate(0,904.36)" gradientUnits="userSpaceOnUse" xlink:href="#a"/><linearGradient id="w" x1="53" x2="53" y1="8" y2="2" gradientUnits="userSpaceOnUse" xlink:href="#a"/><linearGradient id="c" x1="55" x2="61" y1="10" y2="10" gradientUnits="userSpaceOnUse" xlink:href="#a"/><linearGradient id="v" x1="16" x2="16" y1="8" y2="2" gradientTransform="translate(58)" gradientUnits="userSpaceOnUse" xlink:href="#a"/><linearGradient id="u" x1="53" x2="53" y1="8" y2="2" gradientTransform="translate(58)" gradientUnits="userSpaceOnUse" xlink:href="#a"/><linearGradient id="t" x1="19" x2="19" y1="48" y2="54" gradientTransform="translate(58)" gradientUnits="userSpaceOnUse" xlink:href="#a"/><linearGradient id="s" x1="15" x2="9" y1="46" y2="46" gradientUnits="userSpaceOnUse" xlink:href="#a"/><linearGradient id="r" x1="53" x2="53" y1="48" y2="54" gradientTransform="translate(58)" gradientUnits="userSpaceOnUse" xlink:href="#a"/><linearGradient id="q" x1="55" x2="61" y1="46" y2="46" gradientUnits="userSpaceOnUse" xlink:href="#a"/><linearGradient id="linearGradient1037" x1="-916.36" x2="-905.36" y1="-35" y2="-35" gradientUnits="userSpaceOnUse" xlink:href="#a"/><linearGradient id="linearGradient1043" x1="948.36" x2="959.36" y1="-35" y2="-35" gradientUnits="userSpaceOnUse" xlink:href="#a"/><linearGradient id="linearGradient1045" x1="-19" x2="-8" y1="932.36" y2="932.36" gradientUnits="userSpaceOnUse" xlink:href="#a"/><linearGradient id="linearGradient1047" x1="51" x2="62" y1="932.36" y2="932.36" gradientUnits="userSpaceOnUse" xlink:href="#a"/><radialGradient id="radialGradient1259" cx="19" cy="12" r="6" fx="19" fy="12" gradientTransform="matrix(2.5e-7,-1.8333333,1.8333333,2.4999999e-7,-3.0000047,46.833331)" gradientUnits="userSpaceOnUse" xlink:href="#a"/><radialGradient id="radialGradient1033" cx="77" cy="12" r="6" fx="77" fy="12" gradientTransform="matrix(-3.5113632e-7,-1.8333334,1.8333333,-3.5113629e-7,55.000064,153.16665)" gradientUnits="userSpaceOnUse" xlink:href="#linearGradient4270"/><linearGradient id="linearGradient4270"><stop id="stop4272" offset="0" style="stop-color:#000;stop-opacity:.66663194"/><stop id="stop4274" offset="1" style="stop-color:#000;stop-opacity:0"/></linearGradient><radialGradient id="radialGradient1005" cx="77" cy="12" r="6" fx="77" fy="12" gradientTransform="matrix(-3.5113632e-7,-1.8333334,1.8333333,-3.5113629e-7,55.000064,153.16665)" gradientUnits="userSpaceOnUse" xlink:href="#linearGradient4270"/><radialGradient id="radialGradient1013" cx="77" cy="12" r="6" fx="77" fy="12" gradientTransform="matrix(-3.5113632e-7,-1.8333334,1.8333333,-3.5113629e-7,55.000064,153.16665)" gradientUnits="userSpaceOnUse" xlink:href="#linearGradient4270"/><radialGradient id="radialGradient1021" cx="77" cy="12" r="6" fx="77" fy="12" gradientTransform="matrix(-3.5113632e-7,-1.8333334,1.8333333,-3.5113629e-7,55.000064,153.16665)" gradientUnits="userSpaceOnUse" xlink:href="#linearGradient4270"/><radialGradient id="radialGradient1029" cx="77" cy="12" r="6" fx="77" fy="12" gradientTransform="matrix(-3.5113632e-7,-1.8333334,1.8333333,-3.5113629e-7,55.000064,153.16665)" gradientUnits="userSpaceOnUse" xlink:href="#linearGradient4270"/><radialGradient id="radialGradient1321" cx="77" cy="12" r="6" fx="77" fy="12" gradientTransform="matrix(-3.5113632e-7,-1.8333334,1.8333333,-3.5113629e-7,55.000064,153.16665)" gradientUnits="userSpaceOnUse" xlink:href="#a"/></defs><rect style="fill:#f60" id="hint-tile-center" width="5" height="5" x="0" y="0"/><g id="top" transform="translate(0,-904.36)"><rect style="color:#eff0f1;fill:#f0f5f5;opacity:.6;fill-opacity:1" id="rect42" width="6" height="32" x="-916.36" y="-51" class="ColorScheme-Background" transform="matrix(0,-1,-1,0,0,0)"/><rect style="opacity:.01;fill:url(#linearGradient1037)" id="rect44" width="6" height="32" x="-910.36" y="-51" transform="matrix(0,-1,-1,0,0,0)"/></g><g id="topleft" transform="translate(0,-904.36)"><g style="fill-rule:evenodd" id="g53"><path style="opacity:.01;fill:url(#radialGradient1259);fill-opacity:1" id="path47" d="M 7 0 L 7 12 L 13 12 C 13 8.676 15.676 6 19 6 L 19 0 L 7 0 z" transform="translate(0,904.36)"/></g><path id="path55" d="M 13 6 L 13 12 L 19 12 L 19 11 L 19 7 L 19 6 L 13 6 z" transform="translate(0,904.36)" style="color:#eff0f1;fill:#f0f5f5;opacity:.6;fill-opacity:1"/></g><g id="bottom" transform="translate(0,-904.36)"><rect style="color:#eff0f1;fill:#f0f5f5;opacity:.6;fill-opacity:1" id="rect69" width="6" height="32" x="948.36" y="-51" class="ColorScheme-Background" transform="rotate(90)"/><rect style="opacity:.01;fill:url(#linearGradient1043)" id="rect71" width="6" height="32" x="954.36" y="-51" transform="rotate(90)"/></g><g id="left" transform="translate(0,-904.36)"><rect style="color:#eff0f1;fill:#f0f5f5;opacity:.6;fill-opacity:1" id="rect96" width="6" height="32" x="-19" y="916.36" class="ColorScheme-Background" transform="scale(-1,1)"/><rect style="opacity:.01;fill:url(#linearGradient1045)" id="rect98" width="6" height="32" x="-13" y="916.36" transform="scale(-1,1)"/></g><g id="right" transform="translate(0,-904.36)"><rect style="color:#eff0f1;fill:#f0f5f5;opacity:.6;fill-opacity:1" id="rect101" width="6" height="32" x="51" y="916.36" class="ColorScheme-Background"/><rect style="opacity:.01;fill:url(#linearGradient1047)" id="rect103" width="6" height="32" x="57" y="916.36"/></g><g id="center" transform="translate(0,-904.36)"><rect style="fill:none" id="rect106" width="32" height="32" x="19" y="916.36"/><rect style="color:#eff0f1;fill:#f0f5f5;opacity:.6;fill-opacity:1" id="rect108" width="32" height="32" x="19" y="916.36" class="ColorScheme-Background"/></g><rect style="fill:#f0f" id="hint-top-margin" width="4" height="12" x="33" y="0"/><rect style="fill:#f0f" id="hint-bottom-margin" width="4" height="12" x="33" y="44"/><rect style="fill:#f0f" id="hint-right-margin" width="4" height="12" x="26" y="-63" transform="rotate(90)"/><rect style="fill:#f0f" id="hint-left-margin" width="4" height="12" x="26" y="-19" transform="rotate(90)"/><g id="shadow-top" transform="translate(58,-904.36)" style="opacity:0"><rect style="fill:none" id="rect117" width="6" height="32" x="-916.36" y="-51" transform="matrix(0,-1,-1,0,0,0)"/><rect style="opacity:.35;fill:url(#e)" id="rect119" width="6" height="32" x="-910.36" y="-51" transform="matrix(0,-1,-1,0,0,0)"/><rect style="fill:none" id="rect121" width="1" height="32" x="-911.36" y="-51" transform="matrix(0,-1,-1,0,0,0)"/></g><g id="shadow-bottom" transform="translate(58,-904.36)" style="opacity:0"><rect style="fill:none" id="rect158" width="6" height="32" x="948.36" y="-51" transform="rotate(90)"/><rect style="opacity:.35;fill:url(#f)" id="rect160" width="6" height="32" x="954.36" y="-51" transform="rotate(90)"/><rect style="fill:none" id="rect162" width="1" height="32" x="953.36" y="-51" transform="rotate(90)"/></g><g id="shadow-left" transform="translate(58,-904.36)" style="opacity:0"><rect style="fill:none" id="rect199" width="6" height="32" x="-19" y="916.36" transform="scale(-1,1)"/><rect style="opacity:.35;fill:url(#h)" id="rect201" width="6" height="32" x="-13" y="916.36" transform="scale(-1,1)"/><rect style="fill:none" id="rect203" width="1" height="32" x="-14" y="916.36" transform="scale(-1,1)"/></g><g id="shadow-right" transform="translate(58,-904.36)" style="opacity:0"><rect style="fill:none" id="rect206" width="6" height="32" x="51" y="916.36"/><rect style="opacity:.35;fill:url(#g)" id="rect208" width="6" height="32" x="57" y="916.36"/><rect style="fill:none" id="rect210" width="1" height="32" x="56" y="916.36"/></g><g style="fill:none;opacity:0" id="shadow-center" transform="translate(58,-904.36)"><rect id="rect213" width="32" height="32" x="19" y="916.36"/><rect id="rect215" width="32" height="32" x="19" y="916.36"/></g><rect style="fill:#f0f" id="shadow-hint-top-margin" width="4" height="12" x="91" y="0"/><rect style="fill:#f0f" id="shadow-hint-bottom-margin" width="4" height="12" x="91" y="44"/><rect style="fill:#f0f" id="shadow-hint-right-margin" width="4" height="12" x="26" y="-121" transform="rotate(90)"/><rect style="fill:#f0f" id="shadow-hint-left-margin" width="4" height="12" x="26" y="-77" transform="rotate(90)"/><use id="topright" width="100%" height="100%" x="0" y="0" transform="matrix(-1,0,0,1,70,0)" xlink:href="#topleft"/><use id="bottomleft" width="100%" height="100%" x="0" y="0" transform="rotate(-90,35,28)" xlink:href="#topleft"/><use id="bottomright" width="100%" height="100%" x="0" y="0" transform="rotate(-180,35,28)" xlink:href="#topleft"/><g id="shadow-topleft" transform="translate(58,-904.36218)" style="opacity:0"><path style="opacity:.35;fill:url(#radialGradient1321);fill-opacity:1;fill-rule:evenodd;stroke:none;stroke-width:1px;stroke-linecap:butt;stroke-linejoin:miter;stroke-opacity:1" id="path4828" d="m 65,0 v 12 h 6 C 71,8.6760127 73.676013,6 77,6 V 0 Z" transform="translate(-58,904.36218)"/><rect id="rect4834" width="6" height="6" x="-19" y="910.362" ry="1" style="fill:none;fill-opacity:1" transform="scale(-1,1)"/><rect id="rect4836" width="2" height="6" x="-19" y="910.362" ry="0" style="fill:none;fill-opacity:1" transform="scale(-1,1)"/><rect id="rect4838" width="5" height="2" x="-18" y="914.362" style="fill:none;fill-opacity:1" transform="scale(-1,1)"/></g><use id="use1035" width="100%" height="100%" x="0" y="0" transform="rotate(90,93.000016,27.99998)" xlink:href="#shadow-topleft" style="opacity:0"/><use id="shadow-bottomleft" width="100%" height="100%" x="0" y="0" transform="matrix(1,0,0,-1,-7e-6,55.99992)" xlink:href="#shadow-topleft" style="opacity:0"/><use id="shadow-bottomright" width="100%" height="100%" x="0" y="0" transform="rotate(-180,93.000005,27.999982)" xlink:href="#shadow-topleft" style="opacity:0"/></svg>