<svg xmlns="http://www.w3.org/2000/svg" xmlns:svg="http://www.w3.org/2000/svg" xmlns:xlink="http://www.w3.org/1999/xlink" id="svg184" width="257" height="161" version="1.0"><metadata id="metadata188"/><defs id="defs3"><style id="current-color-scheme" type="text/css">.ColorScheme-ButtonFocus{color:#1e92ff}</style></defs><rect id="hint-tile-center" width="40" height="40" x="49.93" y="-90.32" style="opacity:.875;fill:green"/><path id="normal-center" d="m 105.00003,20.999997 v 47.999988 h 48 V 20.999997 Z" style="opacity:0;fill:#000;fill-opacity:.92814373;stroke-width:.99999964"/><g id="normal-topleft" transform="matrix(0.57142916,0,0,0.57142916,-4.651536,-454.20619)" style="opacity:0;fill:#000;fill-opacity:.92814373"><rect id="rect62" width="7" height="7" x="183.14" y="822.86" style="opacity:.52100004;fill:#000;fill-opacity:.92814373;stroke-width:3.50011683"/><g style="fill:#000;fill-opacity:.92814373" id="g60"><path id="path54" d="m 186.14,829.86 h 4 v -4 h -1.4688 c -1.405,0 -2.5312,1.1159 -2.5312,2.5312 z" style="opacity:.82273003;fill:#000;fill-opacity:.92814373"/><path id="path56" d="m 185.14,828.39 c 0,-1.9482 1.5884,-3.5312 3.5312,-3.5312 h 1.4688 v 1 h -1.4688 c -1.405,0 -2.5312,1.1159 -2.5312,2.5312 v 1.4688 h -1 z" style="opacity:.85;fill:#000;fill-opacity:.92814373"/><path id="path58" d="m 186.14,829.86 h 1 v -1 c 0,-1.4154 0.59498,-2 2,-2 h 1 v -1 h -1.4688 c -1.405,0 -2.5312,1.1159 -2.5312,2.5312 z" style="fill:#000;fill-opacity:.92814373"/></g></g><g id="normal-top" transform="matrix(0.36641296,0,0,0.57142728,35.330167,-454.20464)" style="opacity:0;fill:#000;fill-opacity:.92814373"><g style="fill:#000;fill-opacity:.92814373" id="g71"><path id="path65" d="m 190.14,825.86 v 4 h 131 v -4 z" style="opacity:.82273003;fill:#000;fill-opacity:.92814373"/><path id="path67" d="m 190.14,824.86 v 1 h 131 v -1 z" style="opacity:.85;fill:#000;fill-opacity:.92814373"/><path id="path69" d="m 190.14,825.86 v 1 h 131 v -1 z" style="fill:#000;fill-opacity:.92814373"/></g><rect id="rect73" width="131" height="2" x="190.14" y="822.86" style="opacity:.52100004;fill:#000;fill-opacity:.92814373;stroke-width:6.60807753"/></g><use style="opacity:0" id="normal-right" width="100%" height="100%" x="0" y="0" transform="rotate(90,128.99997,45.000046)" xlink:href="#normal-top"/><use style="opacity:0" id="normal-left" width="100%" height="100%" x="0" y="0" transform="matrix(0,-1,1.0000114,0,83.999795,173.99993)" xlink:href="#normal-top"/><use style="opacity:0" id="normal-bottom" width="100%" height="100%" x="0" y="0" transform="matrix(1,0,0,-1,9.7013627e-5,89.999994)" xlink:href="#normal-top"/><use style="opacity:0" id="normal-topright" width="100%" height="100%" x="0" y="0" transform="matrix(-1,0,0,1,258.00004,-1.2372944e-5)" xlink:href="#normal-topleft"/><use style="opacity:0" id="normal-bottomleft" width="100%" height="100%" x="0" y="0" transform="matrix(1,0,0,-1,2.0013627e-5,90.000004)" xlink:href="#normal-topleft"/><use style="opacity:0" id="normal-bottomright" width="100%" height="100%" x="0" y="0" transform="rotate(-180,129.00001,45.000004)" xlink:href="#normal-topleft"/><path class="ColorScheme-ButtonFocus" style="color:#1e92ff;opacity:.15;fill:#000;fill-opacity:1;fill-rule:nonzero;stroke:none" id="hover-center" d="m 18.999999,93.999424 v 47.999996 h 48 V 93.999424 Z"/><g id="hover-left" transform="matrix(1,0,0,3.0009825,-171.14285,-2396.4031)"><path class="ColorScheme-ButtonFocus" style="color:#1e92ff;opacity:.15;fill:#000;fill-opacity:1;fill-rule:nonzero;stroke:none;stroke-width:.999829" id="path4119-9" d="m 186.14285,829.86259 v 15.99453 h 4 v -15.99453 z"/><path id="path3175" d="m 186.14285,829.86259 v 15.99453 h 1 v -15.99453 z" style="color:#1e92ff;opacity:.15;fill:#000;fill-opacity:1;fill-rule:nonzero;stroke:none;stroke-width:.999829" class="ColorScheme-ButtonFocus"/></g><g id="hover-topleft" transform="translate(-171.14285,-735.8571)"><path d="M 15 90 L 15 92.431641 C 14.998699 92.465456 14.990234 92.497074 14.990234 92.53125 L 14.990234 94 L 15 94 L 18.990234 94 L 18.990234 90 L 17.521484 90 L 15 90 z" style="color:#1e92ff;opacity:.15;fill:#000;fill-opacity:1;fill-rule:nonzero;stroke:none" id="path3133" transform="translate(171.14285,735.8571)"/><path id="path3135" d="m 186.14285,825.85654 v 2.53125 1.46875 h 1 v -1.09375 c 0,-1.06153 0,-1.90625 0,-1.90625 h 3 v -1 z" class="ColorScheme-ButtonFocus" style="color:#1e92ff;opacity:.15;fill:#000;fill-opacity:1;fill-rule:nonzero;stroke:none"/></g><g id="hover-top" transform="matrix(0.36657704,0,0,1,-50.712011,-735.8577)"><path id="path4143-7" d="m 190.14286,825.85714 v 4 h 131 v -4 z" class="ColorScheme-ButtonFocus" style="color:#1e92ff;opacity:.15;fill:#000;fill-opacity:1;fill-rule:nonzero;stroke:none"/><path style="color:#1e92ff;opacity:.15;fill:#000;fill-opacity:1;fill-rule:nonzero;stroke:none;stroke-width:.999896" id="path3131" d="m 190.17015,825.85684 v 1 h 130.97271 v -1 z" class="ColorScheme-ButtonFocus"/></g><g id="hover-topright" transform="translate(-254.14285,-735.8577)"><path d="M 67 90 L 67 94 L 67.009766 94 L 71 94 L 71 92.53125 L 71 90 L 68.46875 90 L 67.009766 90 L 67 90 z" style="color:#1e92ff;opacity:.15;fill:#000;fill-opacity:1;fill-rule:nonzero;stroke:none" id="path4155-3" transform="translate(254.14285,735.8577)"/><path id="path3135-4" d="m 325.14285,825.85684 c 0,0 0,1.11588 0,2.53125 v 1.46875 h -1 v -1.09375 c 0,-1.06153 0,-1.90539 0,-1.90625 h -3 v -1 z" class="ColorScheme-ButtonFocus" style="color:#1e92ff;opacity:.15;fill:#000;fill-opacity:1;fill-rule:nonzero;stroke:none"/></g><g id="hover-right" transform="matrix(1,0,0,3.0000017,-254.14285,-2395.5733)"><path id="path4167-1" d="m 325.14286,829.85712 v 16 h -4 v -16 z" class="ColorScheme-ButtonFocus" style="color:#1e92ff;opacity:.15;fill:#000;fill-opacity:1;fill-rule:nonzero;stroke:none"/><path style="color:#1e92ff;fill:#000;fill-opacity:1;fill-rule:nonzero;stroke:none;opacity:.15" id="path3157" d="m 325.14285,829.85713 v 15.99999 h -1 v -15.99999 z" class="ColorScheme-ButtonFocus"/></g><g id="hover-bottomright" transform="rotate(180,128.57144,485.92832)"><path d="M 67 142 L 67 146 L 68.46875 146 C 68.475454 146 68.48159 145.9981 68.488281 145.99805 L 71 145.99805 L 71 143.46875 L 71 142 L 67.009766 142 L 67 142 z" style="color:#1e92ff;opacity:.15;fill:#000;fill-opacity:1;fill-rule:nonzero;stroke:none" id="path3133-3" transform="rotate(-180,128.57144,485.92832)"/><path id="path3135-6" d="M 43.53125,89.4375 C 42.12623,89.4375 41,89.45202 41,89.45202 l 0,3.98548 h 1 v -2.98548 c 0,0 0.85248,-0.01452 1.90625,-0.01452 H 45 v -1 z" class="ColorScheme-ButtonFocus" style="color:#1e92ff;opacity:.15;fill:#000;fill-opacity:1;fill-rule:nonzero;stroke:none" transform="translate(145.14285,736.40462)"/></g><g id="hover-bottom" transform="matrix(-0.36657704,0,0,-1,136.7236,971.85684)"><path id="path4143-7-6" d="m 190.14286,825.85714 v 4 h 131 v -4 z" class="ColorScheme-ButtonFocus" style="color:#1e92ff;opacity:.15;fill:#000;fill-opacity:1;fill-rule:nonzero;stroke:none"/><path style="color:#1e92ff;fill:#000;fill-opacity:1;fill-rule:nonzero;stroke:none;opacity:.15" id="path3131-8" d="m 190.14286,825.85684 v 1 h 131 v -1 z" class="ColorScheme-ButtonFocus"/></g><g id="hover-bottomleft" transform="rotate(180,170.07143,485.92827)"><path d="M 15 142 L 15 143.46875 L 15 145.99805 L 17.511719 145.99805 C 17.518408 145.9981 17.524547 146 17.53125 146 L 19 146 L 19 142 L 18.990234 142 L 15 142 z" style="color:#1e92ff;opacity:.15;fill:#000;fill-opacity:1;fill-rule:nonzero;stroke:none" id="path4155-3-03" transform="rotate(-180,170.07143,485.92827)"/><path id="path3135-4-1" d="m 322.6116,825.85684 c 1.40502,0 2.53125,0.002 2.53125,0.002 v 3.99835 h -1 v -3.0003 c 0,0 -0.85248,3e-4 -1.90625,3e-4 h -1.09375 v -1 z" class="ColorScheme-ButtonFocus" style="color:#1e92ff;opacity:.15;fill:#000;fill-opacity:1;fill-rule:nonzero;stroke:none"/></g><path class="ColorScheme-ButtonFocus" style="color:#1e92ff;opacity:.8;fill:#eaeaea;fill-opacity:1;fill-rule:nonzero;stroke:none" id="selected-center" d="m 19,29.000075 v 48 h 48 v -48 z"/><g id="selected-left" transform="matrix(1,0,0,3.0009825,-171.14285,-2461.4024)"><path class="ColorScheme-ButtonFocus" style="color:#1e92ff;opacity:.8;fill:#eaeaea;fill-rule:nonzero;stroke:none;fill-opacity:1" id="path4119" d="m 186.14285,829.85712 v 16 h 4 v -16 z"/></g><g id="selected-topleft" transform="translate(-171.14285,-800.87282)"><path id="path4131" d="m 186.14285,829.8571 h 4 v -4 h -1.46875 c -1.40502,0 -2.53125,1.11588 -2.53125,2.53125 z" class="ColorScheme-ButtonFocus" style="color:#1e92ff;opacity:.8;fill:#eaeaea;fill-opacity:1;fill-rule:nonzero;stroke:none"/></g><g id="selected-top" transform="matrix(0.36657704,0,0,1,-50.71201,-800.85704)"><path id="path4143" d="m 190.14286,825.85714 v 4 h 131 v -4 z" class="ColorScheme-ButtonFocus" style="color:#1e92ff;opacity:.8;fill:#eaeaea;fill-opacity:1;fill-rule:nonzero;stroke:none"/></g><g id="selected-topright" transform="translate(-254.14285,-800.85704)"><path class="ColorScheme-ButtonFocus" style="color:#1e92ff;opacity:.8;fill:#eaeaea;fill-opacity:1;fill-rule:nonzero;stroke:none" id="path4155" d="m 321.14285,825.85714 v 4 h 4 v -1.46875 c 0,-1.40502 -1.11588,-2.53125 -2.53125,-2.53125 z"/></g><g id="selected-right" transform="matrix(1,0,0,3.0000017,-254.14285,-2460.5726)"><path id="path4167" d="m 325.14286,829.85712 v 16 h -4 v -16 z" class="ColorScheme-ButtonFocus" style="color:#1e92ff;opacity:.8;fill:#eaeaea;fill-opacity:1;fill-rule:nonzero;stroke:none"/></g><g id="selected-bottomright" transform="rotate(180,128.57142,453.42857)"><path id="path4131-3" d="m 186.14285,829.8571 h 4 v -4 h -1.46875 c -1.40502,0 -2.53125,1.11588 -2.53125,2.53125 z" class="ColorScheme-ButtonFocus" style="color:#1e92ff;opacity:.8;fill:#eaeaea;fill-opacity:1;fill-rule:nonzero;stroke:none"/></g><g id="selected-bottom" transform="matrix(-0.36657704,0,0,-1,136.7236,906.85726)"><path id="path4143-6" d="m 190.14286,825.85714 v 4 h 131 v -4 z" class="ColorScheme-ButtonFocus" style="color:#1e92ff;opacity:.8;fill:#eaeaea;fill-opacity:1;fill-rule:nonzero;stroke:none"/></g><g id="selected-bottomleft" transform="rotate(180,170.07142,453.42862)"><path class="ColorScheme-ButtonFocus" style="color:#1e92ff;opacity:.8;fill:#eaeaea;fill-opacity:1;fill-rule:nonzero;stroke:none" id="path4155-5" d="m 321.14285,825.85714 v 4 h 4 v -1.46875 c 0,-1.40502 -1.11588,-2.53125 -2.53125,-2.53125 z"/></g><path class="ColorScheme-ButtonFocus" style="color:#1e92ff;fill:#eaeaea;fill-opacity:1;fill-rule:nonzero;stroke:none" id="selected+hover-center" d="m 104,94.00008 v 48 h 48 v -48 z"/><g id="selected+hover-left" transform="matrix(1,0,0,3.0009825,-86.14285,-2396.4025)"><path class="ColorScheme-ButtonFocus" style="color:#1e92ff;fill:#eaeaea;fill-opacity:1;fill-rule:nonzero;stroke:none" id="path4119-9-6" d="m 186.14285,829.85712 v 16 h 4 v -16 z"/></g><g id="selected+hover-topleft" transform="translate(-86.14285,-735.87282)"><path id="path4131-9-7" d="m 186.14285,829.8571 h 4 v -4 h -1.46875 c -1.40502,0 -2.53125,1.11588 -2.53125,2.53125 z" class="ColorScheme-ButtonFocus" style="color:#1e92ff;fill:#eaeaea;fill-opacity:1;fill-rule:nonzero;stroke:none"/></g><g id="selected+hover-top" transform="matrix(0.36657704,0,0,1,34.28799,-735.85704)"><path id="path4143-7-8" d="m 190.14286,825.85714 v 4 h 131 v -4 z" class="ColorScheme-ButtonFocus" style="color:#1e92ff;fill:#eaeaea;fill-opacity:1;fill-rule:nonzero;stroke:none"/></g><g id="selected+hover-topright" transform="translate(-169.14285,-735.85704)"><path class="ColorScheme-ButtonFocus" style="color:#1e92ff;fill:#eaeaea;fill-opacity:1;fill-rule:nonzero;stroke:none" id="path4155-3-0" d="m 321.14285,825.85714 v 4 h 4 v -1.46875 c 0,-1.40502 -1.11588,-2.53125 -2.53125,-2.53125 z"/></g><g id="selected+hover-right" transform="matrix(1,0,0,3.0000017,-169.14285,-2395.5727)"><path id="path4167-1-9" d="m 325.14286,829.85712 v 16 h -4 v -16 z" class="ColorScheme-ButtonFocus" style="color:#1e92ff;fill:#eaeaea;fill-opacity:1;fill-rule:nonzero;stroke:none"/></g><g id="selected+hover-bottomright" transform="rotate(180,171.07144,485.92862)"><path id="path4131-9-7-7" d="m 186.14285,829.8571 h 4 v -4 h -1.46875 c -1.40502,0 -2.53125,1.11588 -2.53125,2.53125 z" class="ColorScheme-ButtonFocus" style="color:#1e92ff;fill:#eaeaea;fill-opacity:1;fill-rule:nonzero;stroke:none"/></g><g id="selected+hover-bottom" transform="matrix(-0.36657704,0,0,-1,221.7236,971.85714)"><path id="path4143-7-8-4" d="m 190.14286,825.85714 v 4 h 131 v -4 z" class="ColorScheme-ButtonFocus" style="color:#1e92ff;fill:#eaeaea;fill-opacity:1;fill-rule:nonzero;stroke:none"/></g><g id="selected+hover-bottomleft" transform="rotate(180,212.57143,485.92862)"><path class="ColorScheme-ButtonFocus" style="color:#1e92ff;fill:#eaeaea;fill-opacity:1;fill-rule:nonzero;stroke:none" id="path4155-3-0-0" d="m 321.14285,825.85714 v 4 h 4 v -1.46875 c 0,-1.40502 -1.11588,-2.53125 -2.53125,-2.53125 z"/></g></svg>