<svg xmlns="http://www.w3.org/2000/svg" xmlns:svg="http://www.w3.org/2000/svg" xmlns:xlink="http://www.w3.org/1999/xlink" id="svg4379" width="200" height="200" version="1.1" viewBox="0 0 200 200"><metadata id="metadata10"/><defs id="defs8"><linearGradient id="linearGradient1482" x1="-19.458" x2="-14.046" y1="9.496" y2="13.624" gradientUnits="userSpaceOnUse" xlink:href="#linearGradient1811"/><linearGradient id="linearGradient1811"><stop style="stop-color:#cffaff;stop-opacity:1" id="stop1807" offset="0"/><stop style="stop-color:#d3fbfd;stop-opacity:1" id="stop1809" offset="1"/></linearGradient><linearGradient id="linearGradient6384" x1="-11.323" x2="-9.27" y1="10.177" y2="11.438" gradientUnits="userSpaceOnUse" xlink:href="#linearGradient5888"/><linearGradient id="linearGradient5888"><stop style="stop-color:#d2fcff;stop-opacity:1" id="stop5884" offset="0"/><stop style="stop-color:#eafefb;stop-opacity:1" id="stop5886" offset="1"/></linearGradient><linearGradient id="linearGradient8393" x1="-14.046" x2="-15.474" y1="14.169" y2="15.294" gradientUnits="userSpaceOnUse" xlink:href="#linearGradient8516"/><linearGradient id="linearGradient8516"><stop style="stop-color:#d5fafd;stop-opacity:1" id="stop8512" offset="0"/><stop style="stop-color:#d4fdff;stop-opacity:1" id="stop8514" offset="1"/></linearGradient><linearGradient id="linearGradient10057" x1="-11.414" x2="-9.291" y1="16.596" y2="16.758" gradientUnits="userSpaceOnUse" xlink:href="#linearGradient9833"/><linearGradient id="linearGradient9833"><stop style="stop-color:#d2feff;stop-opacity:1" id="stop9829" offset="0"/><stop style="stop-color:#e7fff6;stop-opacity:1" id="stop9831" offset="1"/></linearGradient></defs><g id="g1474" transform="matrix(7.5591101,0,0,7.5591101,197.08711,-54.999816)"><g id="g942" style="fill:#fff;fill-opacity:1" transform="matrix(0.60132135,0,0,0.60132135,-23.667507,-13.463041)"><path id="path934" d="m 7,38.181343 9,-1.218434 v 8.08347 H 7 Z" style="fill:#fff;fill-opacity:1;stroke-width:.27954"/><path style="fill:#fff;fill-opacity:1;stroke-width:.29196" id="path936" d="m 17,36.843479 12,-1.354423 v 9.556481 H 17 Z"/><path id="path938" d="M 7.0121131,45.952425 H 16 v 8.071778 L 7.0121131,52.817434 Z" style="fill:#fff;fill-opacity:1;stroke-width:.27954"/><path style="fill:#fff;fill-opacity:1;stroke-width:.29196" id="path940" d="m 17,45.952425 h 12 v 9.536631 L 17,54.131614 Z"/></g><path id="path873" d="m -19.458258,9.4962157 5.411893,-0.7326704 v 4.8607627 h -5.411893 z" style="fill:url(#linearGradient1482);fill-opacity:1;stroke-width:.168093"/><path style="fill:url(#linearGradient6384);fill-opacity:1;stroke-width:.175562" id="path875" d="M -13.445044,8.6917295 -6.2291875,7.8772861 V 13.623802 H -13.445044 Z"/><path id="path877" d="m -19.450974,14.169133 h 5.404609 v 4.853733 l -5.404609,-0.725656 z" style="fill:url(#linearGradient8393);fill-opacity:1;stroke-width:.168093"/><path style="fill:url(#linearGradient10057);fill-opacity:1;stroke-width:.175562" id="path879" d="m -13.445044,14.169133 h 7.2158565 v 5.73458 l -7.2158565,-0.816259 z"/></g></svg>