<svg xmlns="http://www.w3.org/2000/svg" xmlns:svg="http://www.w3.org/2000/svg" style="enable-background:new" id="svg4306" width="44" height="28" version="1.1"><metadata id="metadata31"/><defs id="defs29"><filter id="filter11290" width="1.048" height="1.048" x="-.024" y="-.024" color-interpolation-filters="sRGB"><feGaussianBlur id="feGaussianBlur880" stdDeviation=".159"/></filter><linearGradient id="linearGradient1005" x1="2.967" x2="16.101" y1="14.069" y2=".934" gradientTransform="translate(-0.0080452,-5.0139e-5)" gradientUnits="userSpaceOnUse"><stop id="stop883" offset="0" stop-color="#ff7d50"/><stop id="stop885" offset=".516" stop-color="#fa4b5a"/><stop id="stop887" offset="1" stop-color="#ff509b"/></linearGradient><clipPath id="aw"><path id="path890" d="m 481,318 h 22 v 22 h -22 z"/></clipPath><clipPath id="av"><path id="path893" d="m 507,318 h 22 v 22 h -22 z"/></clipPath><clipPath id="au"><path id="path896" d="m 530,318 h 22 v 22 h -22 z"/></clipPath><clipPath id="at"><path id="path899" d="m 672,1064 c 0,-1.105 4.925,-2 11,-2 6.075,0 11,0.895 11,2 0,1.105 -4.925,2 -11,2 -6.075,0 -11,-0.895 -11,-2"/></clipPath><clipPath id="as"><path id="path902" d="m 660,1057 h 51 v 65.001 h -51 z"/></clipPath><clipPath id="ar"><path id="path905" d="m 659,517 h 53 v 18 h -53 z"/></clipPath><clipPath id="aq"><path id="path908" d="m 659,500 h 53 v 18 h -53 z"/></clipPath><clipPath id="ap"><path id="path911" d="m 648,112 h 73 v 60 h -73 z"/></clipPath><clipPath id="ao"><path id="path914" d="m 826,1056 h 59 v 60 h -59 z"/></clipPath><clipPath id="an"><path id="path917" d="M 805,276 H 905 V 376 H 805 Z"/></clipPath><clipPath id="am"><path id="path920" d="m 145,1063.8 h 74.152 v 45.21 H 145 Z"/></clipPath><clipPath id="al"><path id="path923" d="m 151,667 h 57 v 57 h -57 z"/></clipPath><clipPath id="ak"><path id="path926" d="m 154,697 h 51 v 51 h -51 z"/></clipPath><clipPath id="aj"><path id="path929" d="m 500.04,864.45 h 36.012 v 67.52 H 500.04 Z"/></clipPath><clipPath id="ai"><path id="path932" d="m 836,870.54 h 47 v 55.539 h -47 z"/></clipPath><clipPath id="ah"><path id="path935" d="m 318.03,702.35 h 62.848 v 37.991 H 318.03 Z"/></clipPath><clipPath id="ag"><path id="path938" d="m 485.03,133.35 h 62.847 v 37.991 H 485.03 Z"/></clipPath><clipPath id="af"><path id="path941" d="m 493.37,677.93 h 45.643 v 68.067 H 493.37 Z"/></clipPath><clipPath id="ae"><path id="path944" d="m 144.34,1018.2 h 71.467 v 78 H 144.34 Z"/></clipPath><clipPath id="ad"><path id="path947" d="m 293.21,1068.6 66.323,-38.292 36.047,62.435 -66.323,38.292 z"/></clipPath><clipPath id="ac"><path id="path950" d="m 488.86,1054.5 h 10 v 10.706 h -10 z"/></clipPath><clipPath id="ab"><path id="path953" d="m 508,1066.8 h 10.001 v 10.705 H 508 Z"/></clipPath><clipPath id="aa"><path id="path956" d="m 525,1045.8 h 10 v 10.706 h -10 z"/></clipPath><clipPath id="z"><path id="path959" d="m 836,1043.7 h 25.5 v 31.5 H 836 Z"/></clipPath><clipPath id="y"><path id="path962" d="m 838,1062.2 h 24 v 24 h -24 z"/></clipPath><clipPath id="x"><path id="path965" d="m 134,489.24 h 7 v 6 h -7 z"/></clipPath><clipPath id="w"><path id="path968" d="m 216,489.24 h 7 v 6 h -7 z"/></clipPath><clipPath id="v"><path id="path971" d="m 838,477.24 h 22 v 22 h -22 z"/></clipPath><clipPath id="u"><path id="path974" d="m 704,1061.2 h 25 v 25 h -25 z"/></clipPath><clipPath id="t"><path id="path977" d="m 663.04,1078.6 -1.808,-3.514 -21.07,-47.453 c 13.336,-18.439 48.336,-26.938 73.836,-3.439 0.842,0 6.476,6.246 6,7 l -18.386,25.895 c -0.483,0.765 -1.453,0.946 -2.177,0.431 l -15.505,-11.011 c -0.359,-0.255 -0.847,-0.153 -1.07,0.238 l -18.272,31.869 c -0.218,0.384 -0.502,0.578 -0.782,0.578 -0.282,0 -0.561,-0.197 -0.766,-0.594"/></clipPath><clipPath id="s"><path id="path980" d="m 127,820.24 h 100 v 100 H 127 Z"/></clipPath><clipPath id="r"><path id="path983" d="m 809,680.24 c 0,-22.092 17.908,-40 40,-40 22.092,0 40,17.908 40,40 0,22.091 -17.908,40 -40,40 -22.092,0 -40,-17.909 -40,-40"/></clipPath><clipPath id="q"><path id="path986" d="m 658,469.24 h 44 v 45 h -44 z"/></clipPath><clipPath id="p"><path id="path989" d="m 651,271.24 h 58 v 58 h -58 z"/></clipPath><clipPath id="o"><path id="path992" d="m 662,307.24 h 38 v 8 h -38 z"/></clipPath><clipPath id="n"><path id="path995" d="m 858.98,137.24 c 0.013,-0.101 0.021,-0.203 0.021,-0.307 v -6.693 h 15.75 c 1.237,0 2.25,-1.013 2.25,-2.25 v -11.25 l -27,-4.5 -27,4.5 v -2.25 l 27,-4.5 27,4.5 v -27 c 0,-1.237 -1.013,-2.25 -2.25,-2.25 h -49.5 c -1.237,0 -2.25,1.013 -2.25,2.25 v -4.25 h 54 v 54 z m -35.979,0 v -9.25 c 0,1.237 1.013,2.25 2.25,2.25 h 15.75 v 6.693 c 0,0.104 0.007,0.207 0.02,0.307 z m 22.5,-7 h 9 v 4.5 h -9 z m 1.125,-9 c -0.62,0 -1.125,-0.506 -1.125,-1.125 v -2.25 c 0,-0.619 0.505,-1.125 1.125,-1.125 h 6.75 c 0.619,0 1.125,0.506 1.125,1.125 v 2.25 c 0,0.619 -0.506,1.125 -1.125,1.125 z"/></clipPath><clipPath id="m"><path id="path998" d="m 531.27,136.24 c 6.325,-2.29 10.727,-8.277 10.727,-15.484 0,-11.316 -10.2,-20.563 -25.65,-34.575 l -4.35,-3.941 -4.35,3.941 c -15.45,14.012 -25.65,23.259 -25.65,34.575 V 81.24 h 60 v 55 z m -26.983,0 c 2.995,-1.052 5.686,-2.883 7.71,-5.25 2.024,2.367 4.715,4.198 7.71,5.25 z m -22.29,0 v -15.484 c 0,7.207 4.402,13.194 10.727,15.484 z"/></clipPath><clipPath id="l"><path id="path1001" d="m 648,79.241 h 64 v 64 h -64 z"/></clipPath><clipPath id="k"><path id="path1004" d="m 500,691.74 c 0,-3.037 2.463,-5.5 5.5,-5.5 3.037,0 5.5,2.463 5.5,5.5 0,3.037 -2.463,5.5 -5.5,5.5 -3.037,0 -5.5,-2.463 -5.5,-5.5"/></clipPath><clipPath id="j"><path id="path1007" d="m 500,669.74 c 0,-3.037 2.463,-5.5 5.5,-5.5 3.037,0 5.5,2.463 5.5,5.5 0,3.038 -2.463,5.5 -5.5,5.5 -3.037,0 -5.5,-2.462 -5.5,-5.5"/></clipPath><clipPath id="i"><path id="path1010" d="m 494,680.74 c 0,-3.037 2.462,-5.5 5.5,-5.5 3.038,0 5.5,2.463 5.5,5.5 0,3.038 -2.462,5.5 -5.5,5.5 -3.038,0 -5.5,-2.462 -5.5,-5.5"/></clipPath><clipPath id="h"><path id="path1013" d="m 513,691.74 c 0,-3.037 2.463,-5.5 5.5,-5.5 3.037,0 5.5,2.463 5.5,5.5 0,3.037 -2.463,5.5 -5.5,5.5 -3.037,0 -5.5,-2.463 -5.5,-5.5"/></clipPath><clipPath id="g"><path id="path1016" d="m 513,669.74 c 0,-3.037 2.463,-5.5 5.5,-5.5 3.037,0 5.5,2.463 5.5,5.5 0,3.038 -2.463,5.5 -5.5,5.5 -3.037,0 -5.5,-2.462 -5.5,-5.5"/></clipPath><clipPath id="f-0"><path id="path1019" d="m 507,680.74 c 0,-3.037 2.463,-5.5 5.5,-5.5 3.037,0 5.5,2.463 5.5,5.5 0,3.038 -2.463,5.5 -5.5,5.5 -3.037,0 -5.5,-2.462 -5.5,-5.5"/></clipPath><clipPath id="e-7"><path id="path1022" d="m 520,680.74 c 0,-3.037 2.463,-5.5 5.5,-5.5 3.037,0 5.5,2.463 5.5,5.5 0,3.038 -2.463,5.5 -5.5,5.5 -3.037,0 -5.5,-2.462 -5.5,-5.5"/></clipPath><clipPath id="d-8"><path id="path1025" d="m 321,322.24 c -4.97,0 -9,-4.029 -9,-9 0,-4.97 4.03,-9 9,-9 h 45 c 4.971,0 9,4.03 9,9 0,4.971 -4.029,9 -9,9 z"/></clipPath><clipPath id="c"><path id="path1028" d="m 322,297.24 c -4.971,0 -9,-4.029 -9,-9 0,-4.97 4.029,-9 9,-9 h 45 c 4.971,0 9,4.03 9,9 0,4.971 -4.029,9 -9,9 z"/></clipPath><clipPath id="b-6"><path id="path1031" d="m 155,83.24 h 44 v 53 h -44 z"/></clipPath><filter id="filter2174" width="1.32" height="1.19" x="-.16" y="-.095" color-interpolation-filters="sRGB"><feGaussianBlur id="feGaussianBlur1034" stdDeviation=".256"/></filter></defs><g id="active-center" transform="matrix(3.7795276,0,0,3.7795276,3.5000049,-0.99999899)"><g id="use1626" transform="matrix(1.1578947,0,0,0.87500005,-1.538762,8.8304688)"><rect id="rect715" width="10.054" height="8.467" x=".529" y="-9.79" style="opacity:.003;fill:#000;fill-opacity:1;stroke-width:.348723"/></g><g id="use1638" transform="translate(-19.446877,20.6375)"><rect id="rect709" width="5.821" height="5.821" x="21.431" y="-19.579" style="opacity:.003;fill:#000;fill-opacity:1;stroke-width:.220007"/><path id="path711" d="m 25.531259,-17.991669 c -0.03397,0 -0.06819,0.01276 -0.09405,0.03876 l -1.09709,1.097091 -1.098125,-1.097091 c -0.05148,-0.05063 -0.134038,-0.05063 -0.185518,0 -0.05063,0.05148 -0.05063,0.134039 0,0.185519 l 1.098641,1.098641 -1.097091,1.098124 c -0.05063,0.05148 -0.05063,0.13404 0,0.185518 0.05148,0.05063 0.13404,0.05063 0.185518,0 l 1.098125,-1.09709 1.09709,1.09709 c 0.05172,0.05199 0.135866,0.05199 0.187586,0 0.05063,-0.05148 0.05063,-0.13404 0,-0.185518 l -1.098124,-1.098124 1.096573,-1.098641 c 0.05063,-0.05148 0.05063,-0.134039 0,-0.185519 -0.02586,-0.026 -0.05957,-0.03876 -0.09353,-0.03876 z" class="ColorScheme-Text" style="color:#232629;fill:#000;fill-opacity:1"/></g></g><g id="inactive-center"><g id="use1624" transform="matrix(4.376295,0,0,3.3070868,41.684212,32.375002)"><rect id="rect4383" width="10.054" height="8.467" x=".529" y="-9.79" style="opacity:.003;fill:#000;fill-opacity:1;stroke-width:.348723"/></g><g id="use1644" transform="matrix(3.7795276,0,0,3.7795276,-26.000003,76.999998)"><rect id="rect4387" width="5.821" height="5.821" x="21.431" y="-19.579" style="opacity:.003;fill:#000;fill-opacity:1;stroke-width:.220007"/><path id="path4389" d="m 25.531259,-17.991669 c -0.03397,0 -0.06819,0.01276 -0.09405,0.03876 l -1.09709,1.097091 -1.098125,-1.097091 c -0.05148,-0.05063 -0.134038,-0.05063 -0.185518,0 -0.05063,0.05148 -0.05063,0.134039 0,0.185519 l 1.098641,1.098641 -1.097091,1.098124 c -0.05063,0.05148 -0.05063,0.13404 0,0.185518 0.05148,0.05063 0.13404,0.05063 0.185518,0 l 1.098125,-1.09709 1.09709,1.09709 c 0.05172,0.05199 0.135866,0.05199 0.187586,0 0.05063,-0.05148 0.05063,-0.13404 0,-0.185518 l -1.098124,-1.098124 1.096573,-1.098641 c 0.05063,-0.05148 0.05063,-0.134039 0,-0.185519 -0.02586,-0.026 -0.05957,-0.03876 -0.09353,-0.03876 z" class="ColorScheme-Text" style="color:#232629;fill:#000;fill-opacity:1;opacity:.5"/></g></g><g id="deactivated-center" transform="translate(43.999999)"><g id="g7325" transform="matrix(4.376295,0,0,3.3070868,41.684212,32.375002)"><rect id="rect7323" width="10.054" height="8.467" x=".529" y="-9.79" style="opacity:.003;fill:#000;fill-opacity:1;stroke-width:.348723"/></g><g id="g7331" transform="matrix(3.7795276,0,0,3.7795276,-26.000003,76.999998)"><rect id="rect7327" width="5.821" height="5.821" x="21.431" y="-19.579" style="opacity:.003;fill:#000;fill-opacity:1;stroke-width:.220007"/><path id="path7329" d="m 25.531259,-17.991669 c -0.03397,0 -0.06819,0.01276 -0.09405,0.03876 l -1.09709,1.097091 -1.098125,-1.097091 c -0.05148,-0.05063 -0.134038,-0.05063 -0.185518,0 -0.05063,0.05148 -0.05063,0.134039 0,0.185519 l 1.098641,1.098641 -1.097091,1.098124 c -0.05063,0.05148 -0.05063,0.13404 0,0.185518 0.05148,0.05063 0.13404,0.05063 0.185518,0 l 1.098125,-1.09709 1.09709,1.09709 c 0.05172,0.05199 0.135866,0.05199 0.187586,0 0.05063,-0.05148 0.05063,-0.13404 0,-0.185518 l -1.098124,-1.098124 1.096573,-1.098641 c 0.05063,-0.05148 0.05063,-0.134039 0,-0.185519 -0.02586,-0.026 -0.05957,-0.03876 -0.09353,-0.03876 z" class="ColorScheme-Text" style="color:#232629;opacity:.5;fill:#000;fill-opacity:1"/></g></g><g id="hover-center"><path id="path8990" style="color:#232629;fill:#ff3232;fill-opacity:1;stroke-width:3.80398;stroke-miterlimit:4;stroke-dasharray:none" d="m 3.0465552e-6,28.000001 v 28 H 44.000001 v -21 -1 -6 h -6 z"/><rect id="rect8984" width="22" height="22" x="11" y="31" style="opacity:.003;fill:#000;fill-opacity:1;stroke-width:.831523"/><path d="m 26.497024,37 c -0.128391,0 -0.257726,0.04823 -0.355465,0.146495 l -4.146482,4.146485 -4.150393,-4.146485 c -0.194571,-0.191358 -0.506601,-0.191358 -0.701171,0 -0.191357,0.19457 -0.191357,0.506604 0,0.701174 l 4.152344,4.152344 -4.146486,4.15039 c -0.191357,0.19457 -0.191357,0.506608 0,0.70117 0.194571,0.191358 0.506608,0.191358 0.701171,0 l 4.150394,-4.146482 4.146482,4.146482 c 0.195477,0.196498 0.513509,0.196498 0.708986,0 0.191357,-0.19457 0.191357,-0.506608 0,-0.70117 l -4.15039,-4.15039 4.144528,-4.152344 c 0.191357,-0.19457 0.191357,-0.506604 0,-0.701174 C 26.752803,37.048227 26.625395,37 26.497043,37 Z" style="color:#232629;fill:#000;fill-opacity:1;stroke-width:3.77953" id="path8986" class="ColorScheme-Text"/></g><g id="pressed-center"><path id="rect477" style="fill:#ff3232;fill-opacity:.6;fill-rule:evenodd;stroke-width:22;stroke-linecap:round;stroke-linejoin:round;paint-order:stroke fill markers" d="M -7.329724e-7,56 V 84.000002 H 43.999997 V 62 56 h -5.999996 z"/><rect style="opacity:.003;fill:#000;fill-opacity:1;stroke-width:.831523" id="rect10655" width="22" height="22" x="11" y="59"/><path d="m 26.497025,65.000002 c -0.12839,0 -0.257726,0.04823 -0.355464,0.146494 l -4.146486,4.146486 -4.150394,-4.146486 c -0.19457,-0.191357 -0.5066,-0.191357 -0.701166,0 -0.191358,0.19457 -0.191358,0.506604 0,0.701174 l 4.152344,4.152344 -4.146486,4.15039 c -0.191358,0.19457 -0.191358,0.506608 0,0.701171 0.19457,0.191357 0.506608,0.191357 0.70117,0 l 4.150394,-4.146482 4.146482,4.146482 c 0.195477,0.196497 0.513509,0.196497 0.708986,0 0.191358,-0.194571 0.191358,-0.506608 0,-0.701171 l -4.150389,-4.15039 4.144527,-4.152344 c 0.191358,-0.19457 0.191358,-0.506604 0,-0.701174 -0.09774,-0.09827 -0.225146,-0.146494 -0.353499,-0.146494 z" style="color:#232629;fill:#000;fill-opacity:1;stroke-width:3.77953" id="path10657" class="ColorScheme-Text"/></g></svg>