<svg xmlns="http://www.w3.org/2000/svg" xmlns:svg="http://www.w3.org/2000/svg" xmlns:xlink="http://www.w3.org/1999/xlink" id="svg4306" width="44" height="28" version="1.1" style="enable-background:new"><metadata id="metadata26"/><defs id="defs24"><filter id="filter11290" width="1.048" height="1.048" x="-.024" y="-.024" color-interpolation-filters="sRGB"><feGaussianBlur id="feGaussianBlur879" stdDeviation=".159"/></filter><linearGradient id="linearGradient1005" x1=".739" x2="16.137" y1="16.296" y2=".898" gradientTransform="translate(-0.0078552,-5.0139e-5)" gradientUnits="userSpaceOnUse"><stop id="stop882" offset="0" stop-color="#ff963c"/><stop id="stop884" offset="1" stop-color="#ffdc55"/></linearGradient><filter id="filter1223" width="1.17" height="1.166" x="-.085" y="-.083" color-interpolation-filters="sRGB"><feGaussianBlur id="feGaussianBlur887" stdDeviation=".336"/></filter></defs><use id="use1053" width="100%" height="100%" x="0" y="0" transform="translate(27.966102)" xlink:href="#g1051"/><g id="active-center" transform="matrix(3.7795276,0,0,3.7795276,3.5000049,-0.99999899)"><g id="use1626" transform="matrix(1.1578947,0,0,0.87500005,-1.538762,8.8304688)"><rect id="rect13196" width="10.054" height="8.467" x=".529" y="-9.79" style="opacity:.003;fill:#000;fill-opacity:1;stroke-width:.348723"/></g><g id="use1638" transform="translate(-19.446877,20.6375)"><rect id="rect13190" width="5.821" height="5.821" x="21.431" y="-19.579" style="opacity:.003;fill:#000;fill-opacity:1;stroke-width:.220007"/><rect id="rect13192" width="2.646" height=".265" x="23.019" y="-16.669" class="ColorScheme-Text" rx=".132" ry=".132" style="color:#232629;fill:#000;fill-opacity:1"/></g></g><g id="inactive-center" transform="matrix(3.7795276,0,0,3.7795276,47.500005,-45.000002)"><g id="use1624" transform="matrix(1.1578947,0,0,0.87500005,-1.538762,20.472136)"><rect id="rect13301" width="10.054" height="8.467" x=".529" y="-9.79" style="opacity:.003;fill:#000;fill-opacity:1;stroke-width:.348723"/></g><g id="use1644" transform="translate(-19.446877,32.279166)"><rect id="rect13291" width="5.821" height="5.821" x="21.431" y="-19.579" style="opacity:.003;fill:#000;fill-opacity:1;stroke-width:.220007"/><rect id="rect13293" width="2.646" height=".265" x="23.019" y="-16.669" class="ColorScheme-Text" rx=".132" ry=".132" style="color:#232629;fill:#000;fill-opacity:1;opacity:.4"/></g></g><g id="deactivated-center" transform="matrix(3.7795276,0,0,3.7795276,91.500011,-45.000002)"><g id="g15892" transform="matrix(1.1578947,0,0,0.87500005,-1.538762,20.472136)"><rect id="rect15890" width="10.054" height="8.467" x=".529" y="-9.79" style="opacity:.003;fill:#000;fill-opacity:1;stroke-width:.348723"/></g><g id="g15898" transform="translate(-19.446877,32.279166)"><rect id="rect15894" width="5.821" height="5.821" x="21.431" y="-19.579" style="opacity:.003;fill:#000;fill-opacity:1;stroke-width:.220007"/><rect id="rect15896" width="2.646" height=".265" x="23.019" y="-16.669" class="ColorScheme-Text" rx=".132" ry=".132" style="color:#232629;opacity:.4;fill:#000;fill-opacity:1"/></g></g><g id="hover-center" transform="matrix(3.7795276,0,0,3.7795276,-45.000002,27.999999)"><g id="use1628" transform="matrix(1.1578947,0,0,0.87500003,11.293531,17.363282)"><rect style="color:#232629;opacity:.1;fill:#000;fill-opacity:1" id="rect17449" width="10.054" height="8.467" x=".529" y="-19.844" class="ColorScheme-Text"/></g><g id="use1634" transform="translate(-12.699999,25.929166)"><rect id="rect17443" width="5.821" height="5.821" x="27.517" y="-25.135" style="opacity:.003;fill:#000;fill-opacity:1;stroke-width:.220007"/><rect style="color:#232629;fill:#000;fill-opacity:1" id="rect17445" width="2.646" height=".265" x="29.104" y="-22.225" class="ColorScheme-Text" rx=".132" ry=".132"/></g></g><g id="pressed-center" transform="matrix(3.7795276,0,0,3.7795276,-95.000004,56.000003)"><g id="use1630" transform="matrix(1.1578947,0,0,0.87500004,24.522698,26.623699)"><rect id="rect19001" width="10.054" height="8.467" x=".529" y="-30.427" style="color:#232629;opacity:.2;fill:#000;fill-opacity:1" class="ColorScheme-Text"/></g><g id="use1640" transform="translate(0.5291675,25.929166)"><rect style="opacity:.003;fill:#000;fill-opacity:1;stroke-width:.220007" id="rect19005" width="5.821" height="5.821" x="27.517" y="-25.135"/><rect style="color:#232629;fill:#000;fill-opacity:1" id="rect19007" width="2.646" height=".265" x="29.104" y="-22.225" class="ColorScheme-Text" rx=".132" ry=".132"/></g></g></svg>