<svg xmlns="http://www.w3.org/2000/svg" xmlns:svg="http://www.w3.org/2000/svg" xmlns:xlink="http://www.w3.org/1999/xlink" id="svg4306" width="44" height="28" version="1.1" style="enable-background:new"><metadata id="metadata24"/><use id="use1002" width="100%" height="100%" x="0" y="0" transform="translate(28.476029)" xlink:href="#g1000"/><g id="active-center"><rect style="opacity:.003;fill:#000;fill-opacity:1;stroke-width:1.32665" id="rect17516" width="44" height="28" x="0" y="0"/><rect style="opacity:.003;fill:#000;fill-opacity:1;stroke-width:.831523" id="rect17510" width="22" height="22" x="11" y="3"/><g id="g937" transform="translate(34,3)"><path style="opacity:1;fill:#000;fill-opacity:1;stroke:none;stroke-width:1;stroke-linecap:round;stroke-miterlimit:4;stroke-dasharray:none;stroke-opacity:1" id="rect925" d="m -17,8 v 8 h 8 V 8 Z m 1,1 h 6 v 6 h -6 z"/><rect style="opacity:1;fill:#000;fill-opacity:1;stroke:none;stroke-width:.912871;stroke-linecap:round;stroke-miterlimit:4;stroke-dasharray:none;stroke-opacity:1" id="rect930" width="10" height="1" x="-17" y="6" ry="0"/><rect id="rect932" width="10" height="1" x="-16" y="-8" ry="0" style="opacity:1;fill:#000;fill-opacity:1;stroke:none;stroke-width:.912871;stroke-linecap:round;stroke-miterlimit:4;stroke-dasharray:none;stroke-opacity:1" transform="rotate(-90)"/></g></g><g id="hover-center" transform="translate(0,27.999999)"><rect style="opacity:.1;fill:#000;fill-opacity:1;stroke-width:1.32665" id="rect599" width="44" height="28" x="0" y="0"/><rect style="opacity:.003;fill:#000;fill-opacity:1;stroke-width:.831523" id="rect601" width="22" height="22" x="11" y="3"/><g id="g609" transform="translate(34,3)"><path style="opacity:1;fill:#000;fill-opacity:1;stroke:none;stroke-width:1;stroke-linecap:round;stroke-miterlimit:4;stroke-dasharray:none;stroke-opacity:1" id="path603" d="m -17,8 v 8 h 8 V 8 Z m 1,1 h 6 v 6 h -6 z"/><rect style="opacity:1;fill:#000;fill-opacity:1;stroke:none;stroke-width:.912871;stroke-linecap:round;stroke-miterlimit:4;stroke-dasharray:none;stroke-opacity:1" id="rect605" width="10" height="1" x="-17" y="6" ry="0"/><rect id="rect607" width="10" height="1" x="-16" y="-8" ry="0" style="opacity:1;fill:#000;fill-opacity:1;stroke:none;stroke-width:.912871;stroke-linecap:round;stroke-miterlimit:4;stroke-dasharray:none;stroke-opacity:1" transform="rotate(-90)"/></g></g><g id="pressed-center" transform="translate(0,55.999998)"><rect style="opacity:.2;fill:#000;fill-opacity:1;stroke-width:1.32665" id="rect2621" width="44" height="28" x="0" y="0"/><rect style="opacity:.003;fill:#000;fill-opacity:1;stroke-width:.831523" id="rect2623" width="22" height="22" x="11" y="3"/><g id="g2631" transform="translate(34,3)"><path style="opacity:1;fill:#000;fill-opacity:1;stroke:none;stroke-width:1;stroke-linecap:round;stroke-miterlimit:4;stroke-dasharray:none;stroke-opacity:1" id="path2625" d="m -17,8 v 8 h 8 V 8 Z m 1,1 h 6 v 6 h -6 z"/><rect style="opacity:1;fill:#000;fill-opacity:1;stroke:none;stroke-width:.912871;stroke-linecap:round;stroke-miterlimit:4;stroke-dasharray:none;stroke-opacity:1" id="rect2627" width="10" height="1" x="-17" y="6" ry="0"/><rect id="rect2629" width="10" height="1" x="-16" y="-8" ry="0" style="opacity:1;fill:#000;fill-opacity:1;stroke:none;stroke-width:.912871;stroke-linecap:round;stroke-miterlimit:4;stroke-dasharray:none;stroke-opacity:1" transform="rotate(-90)"/></g></g><g id="inactive-center" transform="translate(44)"><rect style="opacity:.003;fill:#000;fill-opacity:1;stroke-width:1.32665" id="rect4126" width="44" height="28" x="0" y="0"/><rect style="opacity:.003;fill:#000;fill-opacity:1;stroke-width:.831523" id="rect4128" width="22" height="22" x="11" y="3"/><g id="g4136" transform="translate(34,3)"><path style="opacity:.4;fill:#000;fill-opacity:1;stroke:none;stroke-width:1;stroke-linecap:round;stroke-miterlimit:4;stroke-dasharray:none;stroke-opacity:1" id="path4130" d="m -17,8 v 8 h 8 V 8 Z m 1,1 h 6 v 6 h -6 z"/><path id="rect4132" style="opacity:.4;fill:#000;fill-opacity:1;stroke:none;stroke-width:.912871;stroke-linecap:round;stroke-miterlimit:4;stroke-dasharray:none;stroke-opacity:1" d="M -17 6 L -17 7 L -8 7 L -8 16 L -7 16 L -7 7 L -7 6 L -8 6 L -17 6 z"/></g></g><g id="deactivated-center" transform="translate(88)"><rect style="opacity:.003;fill:#000;fill-opacity:1;stroke-width:1.32665" id="rect5593" width="44" height="28" x="0" y="0"/><rect style="opacity:.003;fill:#000;fill-opacity:1;stroke-width:.831523" id="rect5595" width="22" height="22" x="11" y="3"/><g id="g5601" transform="translate(34,3)"><path style="opacity:.4;fill:#000;fill-opacity:1;stroke:none;stroke-width:1;stroke-linecap:round;stroke-miterlimit:4;stroke-dasharray:none;stroke-opacity:1" id="path5597" d="m -17,8 v 8 h 8 V 8 Z m 1,1 h 6 v 6 h -6 z"/><path id="path5599" style="opacity:.4;fill:#000;fill-opacity:1;stroke:none;stroke-width:.912871;stroke-linecap:round;stroke-miterlimit:4;stroke-dasharray:none;stroke-opacity:1" d="m -17,6 v 1 h 9 v 9 h 1 V 7 6 h -1 z"/></g></g></svg>